{"title":"Rambo 2008 BDRip 720p x264 5.1 Ch. [Hindi-Eng-Tamil-Telugu] YsB","uid":10381397,"size":1133893327,"categoryP":"video","categoryS":"hd___movies","magnet":"?xt=urn:btih:e93cae7005659c71454d049edd1051c58ba1d1ca&amp;dn=Rambo+2008+BDRip+720p+x264+5.1+Ch.+%5BHindi-Eng-Tamil-Telugu%5D+YsB+&amp;tr=udp%3A%2F%2Ftracker.openbittorrent.com%3A80&amp;tr=udp%3A%2F%2Fopen.demonii.com%3A1337&amp;tr=udp%3A%2F%2Ftracker.coppersurfer.tk%3A6969&amp;tr=udp%3A%2F%2Fexodus.desync.com%3A6969","seeders":1,"leechers":0,"uploader":"Dj_YsB","files":8,"time":1403084274,"description":"Rambo 2008 BDRip 720p x264 5.1 Ch.[Hindi-Eng-Tamil-Telugu] YsB TeaM SSX\n &lt;a href=&quot;\nhttp://i.imgur.com/yuKZivj.jpg&quot; rel=&quot;nofollow&quot; target=&quot;_NEW&quot;&gt;\nhttp://i.imgur.com/yuKZivj.jpg&lt;/a&gt;\n\nInfo:\nGeneral\nComplete name                            : Rambo 2008 BDRip 720p x264 5.1 Ch.[Hindi-Eng-Tamil-Telugu] YsB TeaM SSX.mkv\nFormat                                   : Matroska\nFile size                                : 1.04 GiB\nDuration                                 : 1h 31mn\nOverall bit rate                         : 1 619 Kbps\n\nVideo\nID                                       : 1\nFormat                                   : AVC\nFormat/Info                              : Advanced Video Codec\nCodec ID                                 : V_MPEG4/ISO/AVC\nDuration                                 : 1h 31mn\nBit rate                                 : 850 Kbps\nWidth                                    : 1 280 pixels\nHeight                                   : 528 pixels\nFrame rate                               : 23.976 fps\nStream size                              : 536 MiB (51%)\n\n\nAudio\nID                                       : 2\nFormat                                   : AC-3\nDuration                                 : 1h 31mn\nBit rate                                 : 192 Kbps\nChannel(s)                               : 6 channels\nChannel positions                        : Front: L C R, Side: L R, LFE\nSampling rate                            : 48.0 KHz\nStream size                              : 126 MiB\nTitle                                    : YsB TeaM SSX\nLanguage                                 : Hindi/ English/ Tamil/ Telugu\n\n\nScreenShot: &lt;a href=&quot;\nhttp://i.imgur.com/lvctLYr.jpg&quot; rel=&quot;nofollow&quot; target=&quot;_NEW&quot;&gt;\nhttp://i.imgur.com/lvctLYr.jpg&lt;/a&gt; &lt;a href=&quot;\nhttp://i.imgur.com/hXpDuf4.jpg&quot; rel=&quot;nofollow&quot; target=&quot;_NEW&quot;&gt;\nhttp://i.imgur.com/hXpDuf4.jpg&lt;/a&gt; &lt;a href=&quot;\nhttp://i.imgur.com/W10KHRq.jpg&quot; rel=&quot;nofollow&quot; target=&quot;_NEW&quot;&gt;\nhttp://i.imgur.com/W10KHRq.jpg&lt;/a&gt;\n\n\nThanks\nGPsoft, HDDR...\nTeaM SSX - Maverick Dude, Hari, Hemkumar, Sajan...","torrent":{"xt":"urn:btih:e93cae7005659c71454d049edd1051c58ba1d1ca","amp;dn":"Rambo+2008+BDRip+720p+x264+5.1+Ch.+%5BHindi-Eng-Tamil-Telugu%5D+YsB+","amp;tr":["udp%3A%2F%2Ftracker.openbittorrent.com%3A80","udp%3A%2F%2Fopen.demonii.com%3A1337","udp%3A%2F%2Ftracker.coppersurfer.tk%3A6969","udp%3A%2F%2Fexodus.desync.com%3A6969"],"infoHash":"e93cae7005659c71454d049edd1051c58ba1d1ca","infoHashBuffer":{"type":"Buffer","data":[233,60,174,112,5,101,156,113,69,77,4,158,221,16,81,197,139,161,209,202]},"announce":[],"urlList":[]}}